<svg width="32" height="32" viewBox="0 0 32 32" fill="none" xmlns="http://www.w3.org/2000/svg">
<path d="M13.3333 29.3334H18.6667C25.3333 29.3334 28 26.6667 28 20.0001V12.0001C28 5.33341 25.3333 2.66675 18.6667 2.66675H13.3333C6.66667 2.66675 4 5.33341 4 12.0001V20.0001C4 26.6667 6.66667 29.3334 13.3333 29.3334Z" stroke="#1D1F22" stroke-width="1.5" stroke-linecap="round" stroke-linejoin="round"/>
<path d="M22 10.1067V11.44C22 12.5334 21.1067 13.44 20 13.44H12C10.9067 13.44 10 12.5467 10 11.44V10.1067C10 9.01336 10.8933 8.10669 12 8.10669H20C21.1067 8.10669 22 9.00002 22 10.1067Z" stroke="#1D1F22" stroke-width="1.5" stroke-linecap="round" stroke-linejoin="round"/>
<path d="M10.8482 18.6667H10.8636" stroke="#1D1F22" stroke-width="2" stroke-linecap="round" stroke-linejoin="round"/>
<path d="M15.9937 18.6667H16.0091" stroke="#1D1F22" stroke-width="2" stroke-linecap="round" stroke-linejoin="round"/>
<path d="M21.1392 18.6667H21.1546" stroke="#1D1F22" stroke-width="2" stroke-linecap="round" stroke-linejoin="round"/>
<path d="M10.8482 23.3334H10.8636" stroke="#1D1F22" stroke-width="2" stroke-linecap="round" stroke-linejoin="round"/>
<path d="M15.9937 23.3334H16.0091" stroke="#1D1F22" stroke-width="2" stroke-linecap="round" stroke-linejoin="round"/>
<path d="M21.1392 23.3334H21.1546" stroke="#1D1F22" stroke-width="2" stroke-linecap="round" stroke-linejoin="round"/>
</svg>
