<svg width="1440" height="32" viewBox="0 0 1440 32" fill="none" xmlns="http://www.w3.org/2000/svg">
<g clip-path="url(#clip0_152_267)">
<path d="M12.6196 39.2305L0 44V52H1440V44L1427.38 39.2305L1360.11 29.9375C1342.25 34.479 1322.8 38.9375 1316 38.9375C1312.12 38.9375 1305.18 34.6126 1300.11 31.4453C1287.68 28.8716 1272.78 25.4871 1263.5 23.313C1249.67 24.9404 1220.5 28.1956 1214.5 28.1956C1208.98 28.1956 1175.93 22.1304 1156.28 18.3728C1155.84 18.4636 1152.75 19.1372 1152.33 19.228C1151.41 19.4231 1153.18 19.0349 1152.33 19.228L1156.5 28.1956C1141.08 27.1201 1112.11 24.6897 1099.79 22.3357C1071.23 20.6619 1028.63 17.1836 999.7 14.6677L992.5 20.8716L928 23.313L896.529 14C844.877 14.5178 794.214 15.5515 783.5 17.4539C773.586 19.2139 747.326 20.082 720 19.834C692.674 20.082 666.414 19.2139 656.5 17.4539C645.786 15.5515 595.123 14.5178 543.471 14L512 23.313L447.5 20.8716L440.3 14.6677C411.367 17.1836 368.768 20.6619 340.214 22.3357C327.893 24.6897 298.919 27.1201 283.5 28.1956L287.674 19.228C286.942 19.063 288.449 19.3948 287.674 19.228C287.122 19.1091 284.3 18.4919 283.722 18.3728C264.069 22.1304 231.022 28.1956 225.5 28.1956C219.5 28.1956 190.333 24.9404 176.5 23.313C167.223 25.4871 152.318 28.8716 139.889 31.4453C134.825 34.6124 127.876 38.9375 124 38.9375C117.196 38.9375 97.7511 34.479 79.8906 29.9375L12.6196 39.2305Z" fill="#1D1F22"/>
</g>
<defs>
<clipPath id="clip0_152_267">
<rect width="1440" height="32" fill="white"/>
</clipPath>
</defs>
</svg>
