<svg width="1440" height="32" viewBox="0 0 1440 32" fill="none" xmlns="http://www.w3.org/2000/svg">
<g clip-path="url(#clip0_152_268)">
<path d="M0 48V0L12.6196 4.73971L79.8906 14.0327C97.7511 9.49121 117.196 5.03283 124 5.03283C127.877 5.03283 131.487 7.29069 136.553 10.4596C137.598 11.1132 138.705 11.8057 139.889 12.525C152.318 15.0987 167.223 18.4831 176.5 20.6573C190.333 19.0298 219.5 15.7746 225.5 15.7746C231.022 15.7746 264.069 21.8398 283.722 25.5975C285.109 25.3114 286.42 25.025 287.674 24.7423L283.5 15.7746C298.919 16.8501 327.893 19.2804 340.214 21.6345C368.768 23.3084 411.367 26.7867 440.3 29.3025L447.5 23.0986L512 20.6573L543.471 29.9703C595.123 29.4524 645.786 28.4187 656.5 26.5164C666.414 24.7562 692.674 23.8883 720 24.1363C747.326 23.8883 773.586 24.7562 783.5 26.5164C794.214 28.4187 844.877 29.4524 896.529 29.9703L928 20.6573L992.5 23.0986L999.7 29.3025C1028.63 26.7867 1071.23 23.3084 1099.79 21.6345C1112.11 19.2804 1141.08 16.8501 1156.5 15.7746L1152.33 24.7423C1153.18 24.9353 1154.06 25.1298 1154.98 25.3248C1155.4 25.4157 1155.84 25.5066 1156.28 25.5975C1175.93 21.8398 1208.98 15.7746 1214.5 15.7746C1220.5 15.7746 1249.67 19.0298 1263.5 20.6573C1272.78 18.4831 1287.68 15.0987 1300.11 12.525C1301.07 11.9393 1301.99 11.3714 1302.86 10.828L1303.45 10.4596C1308.51 7.29069 1312.12 5.03283 1316 5.03283C1322.8 5.03283 1342.25 9.49121 1360.11 14.0327L1427.38 4.73971L1440 0V48H0Z" fill="#F1EFE3"/>
</g>
<defs>
<clipPath id="clip0_152_268">
<rect width="1440" height="32" fill="white"/>
</clipPath>
</defs>
</svg>
