<svg width="32" height="32" viewBox="0 0 32 32" fill="none" xmlns="http://www.w3.org/2000/svg">
<path d="M12.8667 18.3999L15.0134 20.0666C15.2934 20.3466 15.92 20.4798 16.3334 20.4798H18.9734C19.8 20.4798 20.7067 19.8532 20.92 19.0266L22.5867 13.9732C22.9334 12.9998 22.3067 12.1732 21.2667 12.1732H18.4934C18.08 12.1732 17.7334 11.8265 17.8 11.3465L18.1467 9.13316C18.28 8.50649 17.8667 7.81314 17.24 7.61314C16.68 7.39981 15.9867 7.67979 15.72 8.09312L12.88 12.3198" stroke="#1D1F22" stroke-width="1.5" stroke-miterlimit="10"/>
<path d="M9.33325 18.4V11.6132C9.33325 10.6399 9.74658 10.2932 10.7199 10.2932H11.4132C12.3866 10.2932 12.7999 10.6399 12.7999 11.6132V18.4C12.7999 19.3733 12.3866 19.72 11.4132 19.72H10.7199C9.74658 19.72 9.33325 19.3733 9.33325 18.4Z" stroke="#1D1F22" stroke-width="1.5" stroke-linecap="round" stroke-linejoin="round"/>
<path d="M24 25.1466H22.9867C21.92 25.1466 20.9067 25.5599 20.16 26.3066L17.88 28.56C16.84 29.5866 15.1467 29.5866 14.1067 28.56L11.8267 26.3066C11.08 25.5599 10.0533 25.1466 9 25.1466H8C5.78667 25.1466 4 23.3733 4 21.1866V6.63989C4 4.45323 5.78667 2.67993 8 2.67993H24C26.2133 2.67993 28 4.45323 28 6.63989V21.1866C28 23.3599 26.2133 25.1466 24 25.1466Z" stroke="#1D1F22" stroke-width="1.5" stroke-miterlimit="10" stroke-linecap="round" stroke-linejoin="round"/>
</svg>
