<svg width="32" height="32" viewBox="0 0 32 32" fill="none" xmlns="http://www.w3.org/2000/svg">
<g clip-path="url(#clip0_275_9274)">
<path fill-rule="evenodd" clip-rule="evenodd" d="M2.2605 23.7048C0.86625 21.308 0.132875 18.5889 0.13375 15.8035C0.13725 7.08961 7.2845 0 16.067 0C20.3291 0.00173643 24.3291 1.64788 27.3375 4.63479C30.3455 7.62208 32.0015 11.5932 32 15.8162C31.9963 24.53 24.848 31.6206 16.067 31.6206H16.0601C13.3939 31.6196 10.7736 30.9558 8.44637 29.6967L0 31.8942L2.2605 23.7048ZM4.84837 22.7953L5.16375 23.292L3.8255 28.1393L8.83775 26.8354L9.3215 27.12C11.3542 28.3168 13.6851 28.9501 16.0618 28.9513H16.067C23.366 28.9513 29.3066 23.058 29.3099 15.8152C29.3107 12.3049 27.9349 9.0044 25.4345 6.52155C22.934 4.03895 19.6095 2.67064 16.072 2.66915C8.76725 2.66915 2.82675 8.56174 2.82387 15.8045C2.82288 18.2865 3.52262 20.7036 4.84837 22.7953Z" fill="url(#paint0_linear_275_9274)"/>
<path d="M4.84848 22.7953L5.16383 23.292L3.8256 28.1393L8.83785 26.8354L9.3216 27.12C11.3544 28.3168 13.6852 28.9501 16.0619 28.9514H16.0671C23.3661 28.9514 29.3067 23.058 29.31 15.8152C29.3109 12.3049 27.935 9.00445 25.4346 6.52159C22.9341 4.03899 19.6096 2.67068 16.0721 2.66919C8.76735 2.66919 2.82685 8.56178 2.82398 15.8046C2.82298 18.2866 3.52273 20.7037 4.84848 22.7953Z" fill="url(#paint1_linear_275_9274)"/>
<path d="M12.0847 9.19662C11.7864 8.53888 11.4726 8.52561 11.1889 8.51407C10.9567 8.50415 10.6912 8.5049 10.4259 8.5049C10.1604 8.5049 9.72907 8.604 9.36445 8.99904C8.99945 9.39445 7.97095 10.35 7.97095 12.2934C7.97095 14.237 9.39757 16.1152 9.59645 16.379C9.79557 16.6423 12.3506 20.7582 16.3971 22.3415C19.7601 23.6574 20.4444 23.3957 21.1743 23.3297C21.9043 23.264 23.5298 22.3744 23.8614 21.452C24.1933 20.5297 24.1933 19.7391 24.0938 19.5739C23.9943 19.4093 23.7288 19.3105 23.3307 19.113C22.9324 18.9154 20.9752 17.9598 20.6103 17.8279C20.2453 17.6962 19.9799 17.6305 19.7144 18.026C19.4489 18.4209 18.6866 19.3105 18.4542 19.5739C18.2221 19.838 17.9897 19.8708 17.5917 19.6733C17.1933 19.4751 15.9112 19.0584 14.3901 17.7128C13.2066 16.6658 12.4076 15.3727 12.1753 14.9772C11.9431 14.5823 12.1504 14.3682 12.3501 14.1714C12.5289 13.9944 12.7483 13.7101 12.9476 13.4795C13.1461 13.2488 13.2123 13.0842 13.3451 12.8208C13.4779 12.5571 13.4114 12.3264 13.3121 12.1288C13.2123 11.9313 12.4387 9.97764 12.0847 9.19662Z" fill="white"/>
</g>
<defs>
<linearGradient id="paint0_linear_275_9274" x1="1600" y1="3189.42" x2="1600" y2="0" gradientUnits="userSpaceOnUse">
<stop stop-color="#F9F9F9"/>
<stop offset="1" stop-color="white"/>
</linearGradient>
<linearGradient id="paint1_linear_275_9274" x1="1545.14" y1="3079.61" x2="1545.14" y2="0.604921" gradientUnits="userSpaceOnUse">
<stop stop-color="#1FAF38"/>
<stop offset="1" stop-color="#60D669"/>
</linearGradient>
<clipPath id="clip0_275_9274">
<rect width="32" height="32" fill="white"/>
</clipPath>
</defs>
</svg>
